# This file uses centimeters as units for non-parametric coordinates.

g default
v -0.151832 -0.137637 1.175574
v 0.151832 -0.137637 1.175574
v -0.151832 0.741582 1.025482
v 0.151832 0.741582 1.025482
v -0.151832 0.741582 -0.910482
v 0.151832 0.741582 -0.910482
v -0.151832 -0.137637 -1.060574
v 0.151832 -0.137637 -1.060574
vt 0.375000 0.000000
vt 0.625000 0.000000
vt 0.375000 0.250000
vt 0.625000 0.250000
vt 0.375000 0.500000
vt 0.625000 0.500000
vt 0.375000 0.750000
vt 0.625000 0.750000
vt 0.375000 1.000000
vt 0.625000 1.000000
vt 0.875000 0.000000
vt 0.875000 0.250000
vt 0.125000 0.000000
vt 0.125000 0.250000
vn 0.000000 0.168276 0.985740
vn 0.000000 0.168276 0.985740
vn 0.000000 0.168276 0.985740
vn 0.000000 0.168276 0.985740
vn 0.000000 1.000000 0.000000
vn 0.000000 1.000000 0.000000
vn 0.000000 1.000000 0.000000
vn 0.000000 1.000000 0.000000
vn 0.000000 0.168276 -0.985740
vn 0.000000 0.168276 -0.985740
vn 0.000000 0.168276 -0.985740
vn 0.000000 0.168276 -0.985740
vn 0.000000 -1.000000 0.000000
vn 0.000000 -1.000000 0.000000
vn 0.000000 -1.000000 0.000000
vn 0.000000 -1.000000 0.000000
vn 1.000000 0.000000 0.000000
vn 1.000000 0.000000 0.000000
vn 1.000000 0.000000 0.000000
vn 1.000000 0.000000 0.000000
vn -1.000000 0.000000 0.000000
vn -1.000000 0.000000 0.000000
vn -1.000000 0.000000 0.000000
vn -1.000000 0.000000 0.000000
s off
g pCube1 putter_hull
f 1/1/1 2/2/2 4/4/3 3/3/4
f 3/3/5 4/4/6 6/6/7 5/5/8
f 5/5/9 6/6/10 8/8/11 7/7/12
f 7/7/13 8/8/14 2/10/15 1/9/16
f 2/2/17 8/11/18 6/12/19 4/4/20
f 7/13/21 1/1/22 3/3/23 5/14/24
g default
v -0.052583 0.180446 0.715655
v 0.078499 0.172867 0.719132
v -0.176654 7.433888 1.875647
v 0.260118 7.408632 1.887230
v -0.162716 7.490300 1.473054
v 0.274056 7.465044 1.484638
v -0.048399 0.197377 0.594832
v 0.082682 0.189797 0.598308
vt 0.375000 0.000000
vt 0.625000 0.000000
vt 0.375000 0.250000
vt 0.625000 0.250000
vt 0.375000 0.500000
vt 0.625000 0.500000
vt 0.375000 0.750000
vt 0.625000 0.750000
vt 0.375000 1.000000
vt 0.625000 1.000000
vt 0.875000 0.000000
vt 0.875000 0.250000
vt 0.125000 0.000000
vt 0.125000 0.250000
vn -0.035328 -0.158407 0.986742
vn -0.035328 -0.158407 0.986742
vn -0.035328 -0.158407 0.986742
vn -0.035328 -0.158407 0.986742
vn 0.053445 0.988654 0.140383
vn 0.053445 0.988654 0.140383
vn 0.053445 0.988654 0.140383
vn 0.053445 0.988654 0.140383
vn 0.033253 0.120005 -0.992216
vn 0.033253 0.120005 -0.992216
vn 0.033253 0.120005 -0.992216
vn 0.033253 0.120005 -0.992216
vn -0.053445 -0.988654 -0.140383
vn -0.053445 -0.988654 -0.140383
vn -0.053445 -0.988654 -0.140383
vn -0.053445 -0.988654 -0.140383
vn 0.999088 -0.029983 0.030389
vn 0.999088 -0.029983 0.030389
vn 0.999088 -0.029983 0.030389
vn 0.999088 -0.029983 0.030389
vn -0.999281 -0.011307 -0.036182
vn -0.999281 -0.011307 -0.036182
vn -0.999281 -0.011307 -0.036182
vn -0.999281 -0.011307 -0.036182
s off
g putter_hull pCube3
f 9/15/25 10/16/26 12/18/27 11/17/28
f 11/17/29 12/18/30 14/20/31 13/19/32
f 13/19/33 14/20/34 16/22/35 15/21/36
f 15/21/37 16/22/38 10/24/39 9/23/40
f 10/16/41 16/25/42 14/26/43 12/18/44
f 15/27/45 9/15/46 11/17/47 13/28/48
