# This file uses centimeters as units for non-parametric coordinates.

g default
v -0.151832 -0.137637 1.175574
v 0.151832 -0.137637 1.175574
v -0.151832 0.741582 1.025482
v 0.151832 0.741582 1.025482
v -0.151832 0.741582 -0.910482
v 0.151832 0.741582 -0.910482
v -0.151832 -0.137637 -1.060574
v 0.151832 -0.137637 -1.060574
vn 0.000000 0.168276 0.985740
vn 0.000000 0.168276 0.985740
vn 0.000000 0.168276 0.985740
vn 0.000000 0.168276 0.985740
vn 0.000000 1.000000 0.000000
vn 0.000000 1.000000 0.000000
vn 0.000000 1.000000 0.000000
vn 0.000000 1.000000 0.000000
vn 0.000000 0.168276 -0.985740
vn 0.000000 0.168276 -0.985740
vn 0.000000 0.168276 -0.985740
vn 0.000000 0.168276 -0.985740
vn 0.000000 -1.000000 0.000000
vn 0.000000 -1.000000 0.000000
vn 0.000000 -1.000000 0.000000
vn 0.000000 -1.000000 0.000000
vn 1.000000 0.000000 0.000000
vn 1.000000 0.000000 0.000000
vn 1.000000 0.000000 0.000000
vn 1.000000 0.000000 0.000000
vn -1.000000 0.000000 0.000000
vn -1.000000 0.000000 0.000000
vn -1.000000 0.000000 0.000000
vn -1.000000 0.000000 0.000000
s off
g pCube1 putter_hull
f 1//1 2//2 4//3 3//4
f 3//5 4//6 6//7 5//8
f 5//9 6//10 8//11 7//12
f 7//13 8//14 2//15 1//16
f 2//17 8//18 6//19 4//20
f 7//21 1//22 3//23 5//24
g default
v -0.052583 0.180446 0.715655
v 0.078499 0.172867 0.719132
v -0.176654 7.433888 1.875647
v 0.260118 7.408632 1.887230
v -0.162716 7.490300 1.473054
v 0.274056 7.465044 1.484638
v -0.048399 0.197377 0.594832
v 0.082682 0.189797 0.598308
vn -0.035328 -0.158407 0.986742
vn -0.035328 -0.158407 0.986742
vn -0.035328 -0.158407 0.986742
vn -0.035328 -0.158407 0.986742
vn 0.053445 0.988654 0.140383
vn 0.053445 0.988654 0.140383
vn 0.053445 0.988654 0.140383
vn 0.053445 0.988654 0.140383
vn 0.033253 0.120005 -0.992216
vn 0.033253 0.120005 -0.992216
vn 0.033253 0.120005 -0.992216
vn 0.033253 0.120005 -0.992216
vn -0.053445 -0.988654 -0.140383
vn -0.053445 -0.988654 -0.140383
vn -0.053445 -0.988654 -0.140383
vn -0.053445 -0.988654 -0.140383
vn 0.999088 -0.029983 0.030389
vn 0.999088 -0.029983 0.030389
vn 0.999088 -0.029983 0.030389
vn 0.999088 -0.029983 0.030389
vn -0.999281 -0.011307 -0.036182
vn -0.999281 -0.011307 -0.036182
vn -0.999281 -0.011307 -0.036182
vn -0.999281 -0.011307 -0.036182
s off
g putter_hull pCube3
f 9//25 10//26 12//27 11//28
f 11//29 12//30 14//31 13//32
f 13//33 14//34 16//35 15//36
f 15//37 16//38 10//39 9//40
f 10//41 16//42 14//43 12//44
f 15//45 9//46 11//47 13//48
