<?xml version="1.0" encoding="utf-8"?>
<!-- Generator: Adobe Illustrator 19.2.0, SVG Export Plug-In . SVG Version: 6.00 Build 0)  -->
<svg version="1.1" id="Layer_1" xmlns="http://www.w3.org/2000/svg" xmlns:xlink="http://www.w3.org/1999/xlink" x="0px" y="0px"
	 viewBox="0 0 50 200.1" style="enable-background:new 0 0 50 200.1;" xml:space="preserve">
<style type="text/css">
	.st0{fill:#414042;}
	.st1{fill:#FFFFFF;}
	.st2{fill:#1E1E1E;}
	.st3{fill:#333333;}
</style>
<g id="Layer_2">
	<g>
		<g>
			<path class="st0" d="M50.1,146.1c0,2.2-1.8,4-4,4h-42c-2.2,0-4-1.8-4-4v-42c0-2.2,1.8-4,4-4h42c2.2,0,4,1.8,4,4V146.1z"/>
		</g>
	</g>
	<g>
		<g>
			<path class="st0" d="M50,196.1c0,2.2-1.8,4-4,4H4c-2.2,0-4-1.8-4-4v-42c0-2.2,1.8-4,4-4h42c2.2,0,4,1.8,4,4V196.1z"/>
		</g>
	</g>
	<g>
		<g>
			<path class="st1" d="M50,46c0,2.2-1.8,4-4,4H4c-2.2,0-4-1.8-4-4V4c0-2.2,1.8-4,4-4h42c2.2,0,4,1.8,4,4V46z"/>
		</g>
	</g>
	<g>
		<path class="st2" d="M50,96.1c0,2.2-1.8,4-4,4H4c-2.2,0-4-1.8-4-4v-42c0-2.2,1.8-4,4-4h42c2.2,0,4,1.8,4,4V96.1z"/>
	</g>
</g>
<g>
	<path class="st3" d="M8,38.6v4.1H6.8v-6.4h1l3.3,4.2v-4.2h1.2v6.4h-1L8,38.6z"/>
	<path class="st3" d="M18.3,41.6v1.1h-4.4v-6.4h4.4v1.1h-3.1v1.5h2.7v1h-2.7v1.7H18.3z"/>
	<path class="st3" d="M18.9,42.7l2.5-6.4h1l2.5,6.4h-1.3L23,41.1h-2.2l-0.6,1.6H18.9z M21.9,37.6L21,40.2h1.8L21.9,37.6z"/>
	<path class="st3" d="M25.8,42.7v-6.4h2.8c0.3,0,0.6,0.1,0.8,0.2s0.5,0.3,0.6,0.5c0.2,0.2,0.3,0.4,0.4,0.7c0.1,0.3,0.2,0.5,0.2,0.8
		c0,0.4-0.1,0.8-0.3,1.1s-0.5,0.6-0.8,0.7l1.5,2.4h-1.4l-1.3-2.1h-1.2v2.1H25.8z M27.1,39.5h1.6c0.1,0,0.2,0,0.3-0.1
		c0.1-0.1,0.2-0.1,0.3-0.2c0.1-0.1,0.1-0.2,0.2-0.3s0.1-0.3,0.1-0.4c0-0.1,0-0.3-0.1-0.4s-0.1-0.2-0.2-0.3s-0.2-0.2-0.3-0.2
		c-0.1-0.1-0.2-0.1-0.3-0.1h-1.5V39.5z"/>
	<path class="st3" d="M37.3,41c0,0.3-0.1,0.5-0.2,0.7c-0.1,0.2-0.3,0.4-0.4,0.5c-0.2,0.1-0.4,0.2-0.7,0.3s-0.5,0.1-0.8,0.1h-3.1
		v-6.4h3.4c0.2,0,0.4,0,0.6,0.1c0.2,0.1,0.3,0.2,0.5,0.4c0.1,0.2,0.2,0.3,0.3,0.5s0.1,0.4,0.1,0.6c0,0.3-0.1,0.6-0.2,0.9
		c-0.2,0.3-0.4,0.5-0.7,0.6c0.4,0.1,0.7,0.3,0.9,0.6C37.2,40.3,37.3,40.6,37.3,41z M33.4,37.4V39H35c0.2,0,0.4-0.1,0.5-0.2
		c0.1-0.1,0.2-0.3,0.2-0.6c0-0.2-0.1-0.4-0.2-0.6c-0.1-0.1-0.3-0.2-0.5-0.2H33.4z M36,40.8c0-0.1,0-0.2-0.1-0.3
		c0-0.1-0.1-0.2-0.2-0.3c-0.1-0.1-0.1-0.1-0.2-0.2S35.4,40,35.3,40h-1.9v1.7h1.8c0.1,0,0.2,0,0.3-0.1c0.1,0,0.2-0.1,0.3-0.2
		c0.1-0.1,0.1-0.2,0.2-0.3C36,41,36,40.9,36,40.8z"/>
	<path class="st3" d="M38.9,36.3l1.6,3.1l1.6-3.1h1.3l-2.3,4.2v2.2h-1.2v-2.2l-2.3-4.1H38.9z"/>
</g>
<g>
	<circle class="st3" cx="24.8" cy="16.3" r="3.1"/>
	<path class="st3" d="M27.2,20.4h-4.5c-1.9,0-3.4,1.5-3.4,3.3v1.3v0v0.1h0c0,0.4,0.4,0.6,0.8,0.7l4.9,2l4.9-2
		c0.4-0.2,0.8-0.3,0.8-0.7c0,0,0,0,0,0v-0.1v0v-1.3C30.7,21.9,29,20.4,27.2,20.4z"/>
	<path class="st3" d="M25,32.2l-10.1-4c-0.8-0.3-2.2-1.3-2.2-2.6V10.2c0-1.4,1.1-2.5,2.5-2.5h19.3c1.4,0,2.5,1.1,2.5,2.5v15.3
		c0,1-0.8,2-2.2,2.7l0,0L25,32.2z M15.1,9.5c-0.4,0-0.8,0.3-0.8,0.8v15.3c0,0.3,0.6,0.8,1.1,1l9.5,3.8l9-3.7
		c0.7-0.3,1.2-0.8,1.2-1.1V10.2c0-0.4-0.3-0.8-0.8-0.8H15.1z"/>
</g>
<g>
	<path class="st1" d="M7.9,188.2v4.1H6.7v-6.4h1l3.3,4.2v-4.2h1.2v6.4h-1L7.9,188.2z"/>
	<path class="st1" d="M18.2,191.2v1.1h-4.4v-6.4h4.4v1.1H15v1.5h2.7v1H15v1.7H18.2z"/>
	<path class="st1" d="M18.8,192.3l2.5-6.4h1l2.5,6.4h-1.3l-0.6-1.6h-2.2l-0.6,1.6H18.8z M21.8,187.2l-0.9,2.6h1.8L21.8,187.2z"/>
	<path class="st1" d="M25.8,192.3v-6.4h2.8c0.3,0,0.6,0.1,0.8,0.2s0.5,0.3,0.6,0.5c0.2,0.2,0.3,0.4,0.4,0.7c0.1,0.3,0.2,0.5,0.2,0.8
		c0,0.4-0.1,0.8-0.3,1.1s-0.5,0.6-0.8,0.7l1.5,2.4h-1.4l-1.3-2.1H27v2.1H25.8z M27,189.1h1.6c0.1,0,0.2,0,0.3-0.1
		c0.1-0.1,0.2-0.1,0.3-0.2c0.1-0.1,0.1-0.2,0.2-0.3s0.1-0.3,0.1-0.4c0-0.1,0-0.3-0.1-0.4s-0.1-0.2-0.2-0.3s-0.2-0.2-0.3-0.2
		c-0.1-0.1-0.2-0.1-0.3-0.1H27V189.1z"/>
	<path class="st1" d="M37.2,190.6c0,0.3-0.1,0.5-0.2,0.7c-0.1,0.2-0.3,0.4-0.4,0.5c-0.2,0.1-0.4,0.2-0.7,0.3s-0.5,0.1-0.8,0.1H32
		v-6.4h3.4c0.2,0,0.4,0,0.6,0.1c0.2,0.1,0.3,0.2,0.5,0.4c0.1,0.2,0.2,0.3,0.3,0.5s0.1,0.4,0.1,0.6c0,0.3-0.1,0.6-0.2,0.9
		c-0.2,0.3-0.4,0.5-0.7,0.6c0.4,0.1,0.7,0.3,0.9,0.6C37.1,189.9,37.2,190.2,37.2,190.6z M33.3,187v1.6h1.7c0.2,0,0.4-0.1,0.5-0.2
		c0.1-0.1,0.2-0.3,0.2-0.6c0-0.2-0.1-0.4-0.2-0.6c-0.1-0.1-0.3-0.2-0.5-0.2H33.3z M35.9,190.4c0-0.1,0-0.2-0.1-0.3
		c0-0.1-0.1-0.2-0.2-0.3c-0.1-0.1-0.1-0.1-0.2-0.2s-0.2-0.1-0.3-0.1h-1.9v1.7h1.8c0.1,0,0.2,0,0.3-0.1c0.1,0,0.2-0.1,0.3-0.2
		c0.1-0.1,0.1-0.2,0.2-0.3C35.9,190.6,35.9,190.5,35.9,190.4z"/>
	<path class="st1" d="M38.8,185.9l1.6,3.1l1.6-3.1h1.3l-2.3,4.2v2.2h-1.2V190l-2.3-4.1H38.8z"/>
</g>
<g>
	<circle class="st1" cx="24.8" cy="165.9" r="3.1"/>
	<path class="st1" d="M27.1,170h-4.5c-1.9,0-3.4,1.5-3.4,3.3v1.3v0v0.1h0c0,0.4,0.4,0.6,0.8,0.7l4.9,2l4.9-2
		c0.4-0.2,0.8-0.3,0.8-0.7c0,0,0,0,0,0v-0.1v0v-1.3C30.6,171.5,29,170,27.1,170z"/>
	<path class="st1" d="M24.9,181.8l-10.1-4c-0.8-0.3-2.2-1.3-2.2-2.6v-15.3c0-1.4,1.1-2.5,2.5-2.5h19.3c1.4,0,2.5,1.1,2.5,2.5v15.3
		c0,1-0.8,2-2.2,2.7l0,0L24.9,181.8z M15,159.1c-0.4,0-0.8,0.3-0.8,0.8v15.3c0,0.3,0.6,0.8,1.1,1l9.5,3.8l9-3.7
		c0.7-0.3,1.2-0.8,1.2-1.1v-15.3c0-0.4-0.3-0.8-0.8-0.8H15z"/>
</g>
<g>
	<path class="st1" d="M8,138.3v4.1H6.8V136h1l3.3,4.2V136h1.2v6.4h-1L8,138.3z"/>
	<path class="st1" d="M18.3,141.3v1.1h-4.4V136h4.4v1.1h-3.1v1.5h2.7v1h-2.7v1.7H18.3z"/>
	<path class="st1" d="M18.9,142.4l2.5-6.4h1l2.5,6.4h-1.3l-0.6-1.6h-2.2l-0.6,1.6H18.9z M21.9,137.3l-0.9,2.6h1.8L21.9,137.3z"/>
	<path class="st1" d="M25.8,142.4V136h2.8c0.3,0,0.6,0.1,0.8,0.2s0.5,0.3,0.6,0.5c0.2,0.2,0.3,0.4,0.4,0.7c0.1,0.3,0.2,0.5,0.2,0.8
		c0,0.4-0.1,0.8-0.3,1.1s-0.5,0.6-0.8,0.7l1.5,2.4h-1.4l-1.3-2.1h-1.2v2.1H25.8z M27.1,139.1h1.6c0.1,0,0.2,0,0.3-0.1
		c0.1-0.1,0.2-0.1,0.3-0.2c0.1-0.1,0.1-0.2,0.2-0.3s0.1-0.3,0.1-0.4c0-0.1,0-0.3-0.1-0.4s-0.1-0.2-0.2-0.3s-0.2-0.2-0.3-0.2
		c-0.1-0.1-0.2-0.1-0.3-0.1h-1.5V139.1z"/>
	<path class="st1" d="M37.3,140.7c0,0.3-0.1,0.5-0.2,0.7c-0.1,0.2-0.3,0.4-0.4,0.5c-0.2,0.1-0.4,0.2-0.7,0.3s-0.5,0.1-0.8,0.1h-3.1
		V136h3.4c0.2,0,0.4,0,0.6,0.1c0.2,0.1,0.3,0.2,0.5,0.4c0.1,0.2,0.2,0.3,0.3,0.5s0.1,0.4,0.1,0.6c0,0.3-0.1,0.6-0.2,0.9
		c-0.2,0.3-0.4,0.5-0.7,0.6c0.4,0.1,0.7,0.3,0.9,0.6C37.2,139.9,37.3,140.3,37.3,140.7z M33.4,137v1.6H35c0.2,0,0.4-0.1,0.5-0.2
		c0.1-0.1,0.2-0.3,0.2-0.6c0-0.2-0.1-0.4-0.2-0.6c-0.1-0.1-0.3-0.2-0.5-0.2H33.4z M36,140.5c0-0.1,0-0.2-0.1-0.3
		c0-0.1-0.1-0.2-0.2-0.3c-0.1-0.1-0.1-0.1-0.2-0.2s-0.2-0.1-0.3-0.1h-1.9v1.7h1.8c0.1,0,0.2,0,0.3-0.1c0.1,0,0.2-0.1,0.3-0.2
		c0.1-0.1,0.1-0.2,0.2-0.3C36,140.7,36,140.6,36,140.5z"/>
	<path class="st1" d="M38.8,136l1.6,3.1L42,136h1.3l-2.3,4.2v2.2h-1.2v-2.2l-2.3-4.1H38.8z"/>
</g>
<g>
	<circle class="st1" cx="24.8" cy="116" r="3.1"/>
	<path class="st1" d="M27.2,120.1h-4.5c-1.9,0-3.4,1.5-3.4,3.3v1.3v0v0.1h0c0,0.4,0.4,0.6,0.8,0.7l4.9,2l4.9-2
		c0.4-0.2,0.8-0.3,0.8-0.7c0,0,0,0,0,0v-0.1v0v-1.3C30.7,121.6,29,120.1,27.2,120.1z"/>
	<path class="st1" d="M24.9,131.9l-10.1-4c-0.8-0.3-2.2-1.3-2.2-2.6v-15.3c0-1.4,1.1-2.5,2.5-2.5h19.3c1.4,0,2.5,1.1,2.5,2.5v15.3
		c0,1-0.8,2-2.2,2.7l0,0L24.9,131.9z M15.1,109.1c-0.4,0-0.8,0.3-0.8,0.8v15.3c0,0.3,0.6,0.8,1.1,1l9.5,3.8l9-3.7
		c0.7-0.3,1.2-0.8,1.2-1.1v-15.3c0-0.4-0.3-0.8-0.8-0.8H15.1z"/>
</g>
<g>
	<path class="st1" d="M7.9,88.1v4.1H6.7v-6.4h1L11,90v-4.2h1.2v6.4h-1L7.9,88.1z"/>
	<path class="st1" d="M18.2,91.1v1.1h-4.4v-6.4h4.4v1.1H15v1.5h2.7v1H15v1.7H18.2z"/>
	<path class="st1" d="M18.8,92.2l2.5-6.4h1l2.5,6.4h-1.3l-0.6-1.6h-2.2l-0.6,1.6H18.8z M21.8,87.2l-0.9,2.6h1.8L21.8,87.2z"/>
	<path class="st1" d="M25.7,92.2v-6.4h2.8c0.3,0,0.6,0.1,0.8,0.2s0.5,0.3,0.6,0.5c0.2,0.2,0.3,0.4,0.4,0.7c0.1,0.3,0.2,0.5,0.2,0.8
		c0,0.4-0.1,0.8-0.3,1.1s-0.5,0.6-0.8,0.7l1.5,2.4h-1.4l-1.3-2.1H27v2.1H25.7z M27,89h1.6c0.1,0,0.2,0,0.3-0.1
		c0.1-0.1,0.2-0.1,0.3-0.2c0.1-0.1,0.1-0.2,0.2-0.3s0.1-0.3,0.1-0.4c0-0.1,0-0.3-0.1-0.4s-0.1-0.2-0.2-0.3s-0.2-0.2-0.3-0.2
		c-0.1-0.1-0.2-0.1-0.3-0.1H27V89z"/>
	<path class="st1" d="M37.2,90.6c0,0.3-0.1,0.5-0.2,0.7c-0.1,0.2-0.3,0.4-0.4,0.5c-0.2,0.1-0.4,0.2-0.7,0.3s-0.5,0.1-0.8,0.1H32
		v-6.4h3.4c0.2,0,0.4,0,0.6,0.1c0.2,0.1,0.3,0.2,0.5,0.4c0.1,0.2,0.2,0.3,0.3,0.5s0.1,0.4,0.1,0.6c0,0.3-0.1,0.6-0.2,0.9
		c-0.2,0.3-0.4,0.5-0.7,0.6c0.4,0.1,0.7,0.3,0.9,0.6C37.1,89.8,37.2,90.2,37.2,90.6z M33.3,86.9v1.6h1.7c0.2,0,0.4-0.1,0.5-0.2
		c0.1-0.1,0.2-0.3,0.2-0.6c0-0.2-0.1-0.4-0.2-0.6c-0.1-0.1-0.3-0.2-0.5-0.2H33.3z M35.9,90.3c0-0.1,0-0.2-0.1-0.3
		c0-0.1-0.1-0.2-0.2-0.3c-0.1-0.1-0.1-0.1-0.2-0.2s-0.2-0.1-0.3-0.1h-1.9v1.7h1.8c0.1,0,0.2,0,0.3-0.1c0.1,0,0.2-0.1,0.3-0.2
		c0.1-0.1,0.1-0.2,0.2-0.3C35.9,90.6,35.9,90.5,35.9,90.3z"/>
	<path class="st1" d="M38.8,85.8l1.6,3.1l1.6-3.1h1.3L41,90v2.2h-1.2V90l-2.3-4.1H38.8z"/>
</g>
<g>
	<circle class="st1" cx="24.7" cy="65.8" r="3.1"/>
	<path class="st1" d="M27.1,70h-4.5c-1.9,0-3.4,1.5-3.4,3.3v1.3v0v0.1h0c0,0.4,0.4,0.6,0.8,0.7l4.9,2l4.9-2c0.4-0.2,0.8-0.3,0.8-0.7
		c0,0,0,0,0,0v-0.1v0v-1.3C30.6,71.4,28.9,70,27.1,70z"/>
	<path class="st1" d="M24.9,81.8l-10.1-4c-0.8-0.3-2.2-1.3-2.2-2.6V59.8c0-1.4,1.1-2.5,2.5-2.5h19.3c1.4,0,2.5,1.1,2.5,2.5v15.3
		c0,1-0.8,2-2.2,2.7l0,0L24.9,81.8z M15,59c-0.4,0-0.8,0.3-0.8,0.8v15.3c0,0.3,0.6,0.8,1.1,1l9.5,3.8l9-3.7c0.7-0.3,1.2-0.8,1.2-1.1
		V59.8c0-0.4-0.3-0.8-0.8-0.8H15z"/>
</g>
</svg>
